<svg xmlns="http://www.w3.org/2000/svg" viewBox="0 0 64 64">
  <circle cx="32" cy="32" r="31" fill="#17171a" stroke="#cfa966" stroke-width="1.4"/>
  <circle cx="32" cy="32" r="26" fill="none" stroke="#cfa966" stroke-width="0.8"/>
  <text x="32" y="16" text-anchor="middle" font-family="Georgia, serif" font-size="7" font-weight="700" fill="#cfa966" letter-spacing="0.5">4740</text>
  <g transform="translate(15.2,15.3) scale(1.4)" stroke="#cfa966" stroke-width="1.6" fill="none" stroke-linecap="round" stroke-linejoin="round">
    <path d="M6 8c0-3 2.5-5 6-5s6 2 6 5c0 1-.3 1.7-1 2.3 1 3.7 0 9.7-2.5 12.2-.8.8-1.6 1.2-2.5 1.2s-1.7-.4-2.5-1.2C7 20.3 6 14.3 7 10.6 6.3 10 6 9.3 6 8Z" />
    <path d="M10 9c0 3-.5 5.5-.5 5.5M14 9c0 3 .5 5.5.5 5.5" />
  </g>
</svg>
